<svg width="74" height="64" viewBox="0 0 74 64" fill="none" xmlns="http://www.w3.org/2000/svg">
<path d="M21.6159 50.2268V58.0977L17.8672 58.0848C17.8672 55.5213 17.8672 52.9707 17.8672 50.4072L17.8415 49.338C17.8415 47.7921 16.9011 46.6328 15.4712 46.5168C15.162 46.4911 14.84 46.5168 14.5437 46.607C14.0542 46.7229 13.6162 46.9934 13.2813 47.367C13.1653 47.5087 13.0751 47.6504 12.9979 47.8179C12.8175 48.2172 12.7273 48.6423 12.7016 49.0803C12.6887 49.1963 12.6887 49.3251 12.6887 49.441C12.6887 49.6085 12.6887 49.7759 12.6887 49.9434C12.6887 52.6615 12.6887 55.3667 12.6887 58.0848H8.95293C8.95293 55.3667 8.95293 52.6615 8.96581 49.9434C8.96581 49.7759 8.96581 49.6085 8.95293 49.441C8.95293 49.3251 8.94005 49.1963 8.92717 49.0803C8.9014 48.6423 8.81123 48.2172 8.63088 47.8179C8.55359 47.6504 8.46342 47.5087 8.34748 47.367C8.02543 46.9806 7.57457 46.7229 7.08505 46.607C6.77589 46.5168 6.46672 46.4911 6.14467 46.5168C4.71478 46.6328 3.7744 47.7921 3.7744 49.338L3.74864 50.4072C3.74864 52.9707 3.74864 55.5213 3.74864 58.0848L0 58.0977V50.2268C0 49.8532 9.78973e-08 49.4797 0.0257639 49.0932C0.0257639 49.0159 0.0386456 48.9257 0.0386456 48.8484C0.180347 46.7873 0.991908 45.0354 2.79538 43.9533C4.35409 43.0258 6.40231 42.7295 8.15425 43.2706C9.27498 43.6184 10.0092 44.2882 10.7693 45.1513L10.8079 45.2029L10.8466 45.1513C11.6066 44.2882 12.3409 43.6184 13.4616 43.2706C15.2135 42.7295 17.2618 43.0129 18.8205 43.9533C20.6239 45.0354 21.4484 46.7873 21.5772 48.8484C21.5772 48.9257 21.5901 49.0159 21.5901 49.0932C21.603 49.4797 21.6159 49.8532 21.6159 50.2268Z" fill="#828282"/>
<path d="M12.7017 50.4071C12.7017 52.9706 12.7017 55.5212 12.7017 58.0718H12.6758C12.6758 55.3538 12.6758 52.6486 12.6758 49.9305C12.6758 49.763 12.6758 49.5955 12.6758 49.4281C12.6758 49.2993 12.6887 49.1833 12.6887 49.0674L12.7017 49.0803V50.4071Z" fill="#828282"/>
<path d="M70.3353 47.2123V53.3055C70.3353 54.89 71.4818 54.9157 73.6459 54.7998V58.2264C68.4674 58.8061 66.5609 57.3246 66.5609 53.3055V47.2123H64.0103V43.5796H66.5609V41.8019L70.3353 38.0146V43.5796H73.6459V47.1995L70.3353 47.2123Z" fill="#828282"/>
<path d="M34.034 43.5664L30.8007 53.3695L27.0134 43.5664H22.9041L28.8813 57.685C28.1856 59.6688 27.0778 60.5061 25.0553 60.4804V63.9842C28.7911 64.1904 31.2387 62.3482 32.7587 58.1487L38.0661 43.5664H34.034Z" fill="#828282"/>
<path d="M61.8591 43.5664H58.0975V58.1487H61.8591V43.5664Z" fill="#828282"/>
<path d="M53.3311 45.4086C51.9656 43.9272 50.2652 43.1671 48.3072 43.1671C46.2718 43.1671 44.6874 43.8627 43.5795 45.2926V37.731H43.4765L39.818 41.3894V58.1617H43.5795V56.4355C44.6874 57.8654 46.259 58.561 48.3072 58.561C50.2523 58.561 51.9528 57.8396 53.3311 56.3453C54.7353 54.8639 55.4309 53.0218 55.4309 50.8576C55.4309 48.6935 54.7353 46.89 53.3311 45.4086ZM50.51 53.8333C49.75 54.5934 48.7838 54.967 47.6244 54.967C46.4651 54.967 45.4989 54.5934 44.7389 53.8333C43.9789 53.0476 43.6053 52.0556 43.6053 50.8576C43.6053 49.6596 43.9789 48.6677 44.7389 47.9077C45.4989 47.1219 46.4651 46.7483 47.6244 46.7483C48.7838 46.7483 49.75 47.1219 50.51 47.9077C51.2958 48.6677 51.6694 49.6596 51.6694 50.8576C51.6694 52.0556 51.2958 53.0476 50.51 53.8333Z" fill="#828282"/>
<path d="M59.9693 36.2511L57.1967 39.0166L59.9622 41.7892L62.7348 39.0237L59.9693 36.2511Z" fill="#828282"/>
<path d="M54.7481 17.9059L48.0367 24.6302H48.0238C41.8533 18.4469 31.8441 18.434 25.6737 24.6045C25.6608 24.6173 25.6608 24.6173 25.6479 24.6302H25.635L18.9106 17.9059L36.8294 0L54.7481 17.9059Z" fill="#828282"/>
<path d="M46.0529 26.6141L36.8423 35.8247L27.6189 26.6141C30.0536 24.1537 33.3771 22.7753 36.8294 22.7882C37.4478 22.7882 38.0661 22.8268 38.6715 22.917C41.4669 23.3163 44.0562 24.6045 46.0529 26.6141Z" fill="#828282"/>
</svg>
