<svg width="134" height="40" viewBox="0 0 134 40" fill="none" xmlns="http://www.w3.org/2000/svg">
<path d="M74.9317 20.1252V28.9127L70.7421 28.8926C70.7421 26.0363 70.7421 23.1795 70.7421 20.3222L70.709 19.1242C70.709 17.3983 69.6605 16.0967 68.0655 15.9687C67.7146 15.9391 67.3611 15.9742 67.0228 16.0722C66.4768 16.2018 65.9856 16.5002 65.6191 16.9251C65.4925 17.0789 65.3857 17.248 65.3013 17.4285C65.1052 17.8729 64.9935 18.3499 64.9719 18.8351C64.9619 18.9703 64.9547 19.1055 64.9503 19.2421C64.9503 19.4319 64.9503 19.6204 64.9503 19.8044C64.9503 22.8334 64.9503 25.8618 64.9503 28.8897H60.7795C60.7795 25.8618 60.7819 22.8334 60.7867 19.8044C60.7867 19.6204 60.7867 19.4319 60.7795 19.2421C60.7795 19.1069 60.7694 18.9717 60.7579 18.838C60.7363 18.352 60.6251 17.8741 60.43 17.4285C60.3446 17.2482 60.2374 17.0792 60.1107 16.9251C59.7443 16.5008 59.2538 16.2024 58.7084 16.0722C58.3697 15.974 58.0157 15.9389 57.6643 15.9687C56.0693 16.0953 55.0223 17.3969 55.0208 19.1242L54.9877 20.3222C54.9877 23.1795 54.9877 26.0363 54.9877 28.8926L50.7996 28.9127V20.1252C50.7996 19.7067 50.8068 19.2852 50.8284 18.8638C50.8284 18.7704 50.8385 18.6812 50.8442 18.5891C50.9967 16.288 51.9099 14.3248 53.9263 13.1239C55.6723 12.0812 57.9534 11.7561 59.9108 12.3616C61.1606 12.7499 61.9775 13.4993 62.8275 14.46L62.8735 14.5146L62.9181 14.46C63.7681 13.4993 64.585 12.7499 65.8363 12.3616C67.7865 11.7561 70.0733 12.0812 71.8208 13.1239C73.8343 14.3262 74.7504 16.288 74.9043 18.5891C74.9043 18.6812 74.9144 18.7718 74.9187 18.8638C74.9245 19.2852 74.9317 19.7067 74.9317 20.1252Z" fill="white"/>
<path d="M64.972 20.3279C64.972 23.1833 64.972 26.0381 64.972 28.8925H64.9418C64.9418 25.8646 64.9418 22.8362 64.9418 19.8073C64.9418 19.6232 64.9418 19.4348 64.9418 19.2449C64.9418 19.1083 64.9518 18.9731 64.9633 18.8379L64.9734 18.8595L64.972 20.3279Z" fill="white"/>
<path d="M129.327 16.7568V23.5553C129.327 25.32 130.601 25.3502 133.02 25.2222V29.045C127.237 29.6994 125.11 28.0383 125.11 23.5567V16.7568H122.27V12.7067H125.111V10.7162L129.327 6.49072V12.7067H133.02V16.7554L129.327 16.7568Z" fill="white"/>
<path d="M88.7919 12.6895L85.1776 23.6344L80.9478 12.6895H76.3569L83.0346 28.451C82.2537 30.6673 81.0211 31.6065 78.7674 31.5763V35.4839C82.9383 35.7097 85.6709 33.6588 87.3623 28.9702L93.2892 12.6895H88.7919Z" fill="white"/>
<path d="M119.863 12.6895H115.664V28.9702H119.863V12.6895Z" fill="white"/>
<path d="M110.347 14.7403C108.815 13.0792 106.928 12.2321 104.737 12.2321C102.461 12.2321 100.696 13.013 99.4635 14.6066V6.16992H99.347L95.2625 10.2545V28.9773H99.4621V27.0544C100.702 28.648 102.459 29.4289 104.736 29.4289C106.915 29.4289 108.808 28.6163 110.345 26.9566C111.909 25.2955 112.689 23.2446 112.689 20.8341C112.689 18.4236 111.91 16.4015 110.347 14.7403ZM107.191 24.1478C106.343 24.9963 105.268 25.4196 103.968 25.4177C102.674 25.4177 101.594 24.9963 100.745 24.1478C99.8964 23.2685 99.4731 22.1616 99.475 20.8269C99.475 19.4894 99.8964 18.3819 100.745 17.5362C101.594 16.6575 102.668 16.2418 103.968 16.2418C105.268 16.2418 106.343 16.6632 107.191 17.5362C108.07 18.3848 108.486 19.4894 108.486 20.8269C108.486 22.1645 108.07 23.269 107.191 24.1478Z" fill="white"/>
<path d="M117.746 4.51669L114.651 7.60352L117.742 10.702L120.837 7.61514L117.746 4.51669Z" fill="white"/>
<path d="M40.0101 20.0014L32.5126 27.5047H32.504C30.8646 25.8615 28.9172 24.5578 26.7733 23.6684C24.6295 22.7789 22.3312 22.321 20.0101 22.321C17.689 22.321 15.3907 22.7789 13.2468 23.6684C11.1029 24.5578 9.15553 25.8615 7.51618 27.5047H7.50324L0 20.0014L20.0086 0L40.0101 20.0014Z" fill="white"/>
<path d="M30.2992 29.7166L20.0159 39.9999L9.71814 29.7166C11.0638 28.3585 12.6664 27.2819 14.4324 26.5496C16.1984 25.8172 18.0925 25.4437 20.0043 25.4508C20.6924 25.4504 21.3797 25.4985 22.061 25.5946C25.1847 26.0282 28.0793 27.4765 30.2992 29.7166Z" fill="white"/>
</svg>
